<?xml version="1.0" encoding="utf-8"?>
<!-- Generator: Adobe Illustrator 25.3.1, SVG Export Plug-In . SVG Version: 6.00 Build 0)  -->
<svg version="1.1" id="Layer_1" xmlns="http://www.w3.org/2000/svg" xmlns:xlink="http://www.w3.org/1999/xlink" x="0px" y="0px"
	 viewBox="0 0 887.94 953.72" style="enable-background:new 0 0 887.94 953.72;" xml:space="preserve">
<style type="text/css">
	.st0{fill:#C2C2C3;}
	.st1{fill:#E3E3E3;}
	.st2{fill:#6D6E70;}
	.st3{fill:#2D3561;}
	.st4{fill:#020000;}
	.st5{fill:#252424;}
</style>
<g>
	<g>
		<rect y="-8" class="st0" width="888.44" height="953.36"/>
		<rect y="231" class="st1" width="6.22" height="708.05"/>
		<rect x="881.73" y="-1.33" class="st2" width="6.71" height="940.69"/>
		<rect x="0.22" y="939.05" class="st2" width="888.44" height="6.67"/>
		<rect x="6.22" y="-1.33" class="st3" width="876" height="48.67"/>
		<g>
			<rect x="776.67" y="8.94" class="st0" width="28.11" height="28.11"/>
			<rect x="776.67" y="8.94" class="st1" width="28.11" height="2.78"/>
			<rect x="776.67" y="34.28" class="st2" width="28.11" height="2.78"/>
			<rect x="776.67" y="8.94" class="st1" width="2.78" height="28.11"/>
			<rect x="802" y="8.94" class="st2" width="2.78" height="28.11"/>
			<rect x="782.22" y="29.17" class="st4" width="17" height="3.11"/>
		</g>
		<g>
			<rect x="810" y="8.94" class="st0" width="28.11" height="28.11"/>
			<rect x="810" y="8.94" class="st1" width="28.11" height="2.78"/>
			<rect x="810" y="34.28" class="st2" width="28.11" height="2.78"/>
			<rect x="810" y="8.94" class="st1" width="2.78" height="28.11"/>
			<rect x="835.33" y="8.94" class="st2" width="2.78" height="28.11"/>
			<rect x="815.55" y="14.28" class="st4" width="17" height="3.11"/>
			<rect x="815.55" y="16.61" class="st4" width="17" height="14.44"/>
			<rect x="816.93" y="18.94" class="st0" width="14.25" height="10.67"/>
		</g>
		<g>
			<rect x="843.08" y="8.94" class="st0" width="28.11" height="28.11"/>
			<rect x="843.08" y="8.94" class="st1" width="28.11" height="2.78"/>
			<rect x="843.08" y="34.28" class="st2" width="28.11" height="2.78"/>
			<rect x="843.08" y="8.94" class="st1" width="2.78" height="28.11"/>
			<rect x="868.41" y="8.94" class="st2" width="2.78" height="28.11"/>
			<rect x="850.01" y="18.94" class="st0" width="14.25" height="10.67"/>
			<polygon class="st4" points="864.48,30.08 861.88,30.08 849.8,15.92 852.39,15.92 			"/>
			<polygon class="st4" points="849.8,30.08 852.39,30.08 864.48,15.92 861.88,15.92 			"/>
		</g>
		<rect x="13.33" y="69" class="st2" width="862.22" height="862.36"/>
		<rect x="17.69" y="73.47" class="st4" width="853.5" height="233.72"/>
		<rect x="17.69" y="73.47" class="st5" width="853.5" height="853.89"/>
		<g>
			<defs>
				<rect id="SVGID_1_" x="66.94" y="75.73" width="849" height="848.63"/>
			</defs>
			<clipPath id="SVGID_2_">
				<use xlink:href="#SVGID_1_"  style="overflow:visible;"/>
			</clipPath>
		</g>
		<g>
			<rect x="840.83" y="630.82" class="st5" width="28.11" height="28.11"/>
		</g>
		<rect x="6.22" y="-8" class="st1" width="882.22" height="6.67"/>
	</g>
</g>
</svg>
